<svg xmlns="http://www.w3.org/2000/svg" xmlns:xlink="http://www.w3.org/1999/xlink" id="Layer_1" x="0" y="0" version="1.1" viewBox="0 0 1280 720" xml:space="preserve" style="enable-background:new 0 0 1280 720"><style type="text/css">.st0{clip-path:url(#SVGID_2_)}.st1{fill:#fff}.st2{fill-rule:evenodd;clip-rule:evenodd;fill:#e8f0f8}.st3{clip-path:url(#SVGID_4_)}.st4{clip-path:url(#SVGID_6_)}.st5{clip-path:url(#SVGID_8_)}.st6{fill:#949494}.st7{fill:#a3a3a3}.st8{fill:#32bedd}.st9{fill:#9cebff}.st10{fill:#50e6ff}.st11{font-family:&apos;ArialMT&apos;}.st12{font-size:19px}.st13{fill:#595959}.st14{font-family:&apos;Arial-BoldMT&apos;}.st15{font-size:12px}.st16{fill-rule:evenodd;clip-rule:evenodd;fill:#e5faff}.st17{fill:none;stroke:#4472c4;stroke-width:2;stroke-miterlimit:8;stroke-dasharray:8,6}.st18,.st19{fill-rule:evenodd;clip-rule:evenodd}.st18{fill:#fff;stroke:#7eabd8;stroke-width:2;stroke-miterlimit:8}.st19{fill:#f2f2f2}.st20{font-size:16px}.st21{clip-path:url(#SVGID_10_)}.st22{clip-path:url(#SVGID_12_)}.st23{clip-path:url(#SVGID_14_)}.st24{fill:#0078d4}.st25{fill:#c3f1ff}.st26{fill:url(#SVGID_15_)}.st27{fill:url(#SVGID_16_)}.st28{clip-path:url(#SVGID_18_)}.st29{clip-path:url(#SVGID_20_)}.st30{clip-path:url(#SVGID_22_)}.st31{fill:url(#SVGID_23_)}.st32{fill:url(#SVGID_24_)}.st33{clip-path:url(#SVGID_26_)}.st34{clip-path:url(#SVGID_28_)}.st35{clip-path:url(#SVGID_30_)}.st36{fill:url(#SVGID_31_)}.st37{fill:url(#SVGID_32_)}.st38{clip-path:url(#SVGID_34_)}.st39{clip-path:url(#SVGID_36_)}.st40{clip-path:url(#SVGID_38_)}.st41{fill:#6bb9f2}.st42{fill:url(#SVGID_39_)}.st43{fill-rule:evenodd;clip-rule:evenodd;fill:#fff}.st44{clip-path:url(#SVGID_41_)}.st45{clip-path:url(#SVGID_43_)}.st46{clip-path:url(#SVGID_45_)}.st47{fill:url(#SVGID_46_)}.st48{fill:#ff9300;fill-opacity:.75}.st49{clip-path:url(#SVGID_48_)}.st50{clip-path:url(#SVGID_50_)}.st51{clip-path:url(#SVGID_52_)}.st52{fill:url(#SVGID_53_)}.st53{fill:url(#SVGID_54_)}.st54{fill:url(#SVGID_55_)}.st55{fill:#1490df}.st56{clip-path:url(#SVGID_57_)}.st57{clip-path:url(#SVGID_59_)}.st58{clip-path:url(#SVGID_61_)}.st59{fill:url(#SVGID_62_)}.st60{fill:#e8e8e8}.st61{fill:#198ab3}.st62{fill:url(#SVGID_63_)}.st63{clip-path:url(#SVGID_65_)}.st64{clip-path:url(#SVGID_67_)}.st65{clip-path:url(#SVGID_69_)}.st66{fill:url(#SVGID_70_)}.st67{fill:#f2f2f2}.st68{clip-path:url(#SVGID_72_)}.st69{clip-path:url(#SVGID_74_)}.st70{clip-path:url(#SVGID_76_)}.st71{fill:url(#SVGID_77_)}.st72{fill-rule:evenodd;clip-rule:evenodd;fill:url(#SVGID_78_)}.st73{clip-path:url(#SVGID_80_)}.st74{clip-path:url(#SVGID_82_)}.st75{clip-path:url(#SVGID_84_)}.st76{fill:url(#SVGID_85_)}.st77{fill:#37c2b1}.st78{fill:#258277}.st79{clip-path:url(#SVGID_87_)}.st80{clip-path:url(#SVGID_89_)}.st81{clip-path:url(#SVGID_91_)}.st82{fill:url(#SVGID_92_)}.st83{fill:url(#SVGID_93_)}.st84{clip-path:url(#SVGID_95_)}.st85{clip-path:url(#SVGID_97_)}.st86{clip-path:url(#SVGID_99_)}.st87{fill:url(#SVGID_100_)}.st88{fill:#53b1e0}.st89{fill:url(#SVGID_101_)}.st90{font-size:24px}.st91{clip-path:url(#SVGID_103_)}.st92{clip-path:url(#SVGID_105_)}.st93{clip-path:url(#SVGID_107_)}.st94{fill:#76bc2d}.st95{fill:url(#SVGID_108_)}.st96{fill:#b3b3b3;fill-opacity:.15}.st97{fill:#a3a3a3;fill-opacity:9.000000e-02}.st98{clip-path:url(#SVGID_110_)}.st99{clip-path:url(#SVGID_112_)}.st100{clip-path:url(#SVGID_114_)}.st101{fill:url(#SVGID_115_)}.st102{fill:#767676}.st103{fill:#999}.st104{fill:#b3b3b3}.st105{fill:url(#SVGID_116_)}.st106{clip-path:url(#SVGID_118_)}.st107{clip-path:url(#SVGID_120_)}.st108{clip-path:url(#SVGID_122_)}.st109{fill:url(#SVGID_123_)}.st110{fill:#341a6e}.st111{fill:url(#SVGID_124_)}.st112{fill:url(#SVGID_125_)}.st113{fill:url(#SVGID_126_)}.st114{fill:url(#SVGID_127_)}.st115{fill:url(#SVGID_128_)}.st116{fill:url(#SVGID_129_)}.st117{fill:none;stroke:#0078d4;stroke-width:2;stroke-miterlimit:8;stroke-dasharray:6,2}.st118{clip-path:url(#SVGID_131_)}.st119{clip-path:url(#SVGID_133_)}.st120{clip-path:url(#SVGID_135_)}.st121{fill:url(#SVGID_136_)}.st122{fill:#fff;fill-opacity:.6}.st123{fill:#f2f2f2;fill-opacity:.55}.st124{fill:url(#SVGID_137_)}.st125{fill:url(#SVGID_138_)}.st126{fill:#f2f2f2;fill-opacity:.7}.st127{fill:url(#SVGID_139_)}.st128{fill:url(#SVGID_140_)}.st129{fill:url(#SVGID_141_)}.st130{clip-path:url(#SVGID_143_)}.st131{clip-path:url(#SVGID_145_)}.st132{clip-path:url(#SVGID_147_)}.st133{fill:url(#SVGID_148_)}.st134{fill:#003067}.st135{fill:url(#SVGID_149_)}.st136{clip-path:url(#SVGID_151_)}.st137{clip-path:url(#SVGID_153_)}.st138{clip-path:url(#SVGID_155_)}.st139{fill:url(#SVGID_156_)}</style><g><defs><rect id="SVGID_1_" width="1280" height="720"/></defs><clipPath id="SVGID_2_"><use xlink:href="#SVGID_1_" style="overflow:visible"/></clipPath><g class="st0"><rect width="1280" height="720" class="st1"/><path d="M361,185.9c0-8.2,6.7-14.9,14.9-14.9h838.3c8.2,0,14.9,6.7,14.9,14.9v474.3c0,8.2-6.7,14.9-14.9,14.9H375.9 c-8.2,0-14.9-6.7-14.9-14.9V185.9z" class="st2"/><g><defs><rect id="SVGID_3_" width="48" height="48" x="376" y="182"/></defs><clipPath id="SVGID_4_"><use xlink:href="#SVGID_3_" style="overflow:visible"/></clipPath><g class="st3"><g><defs><rect id="SVGID_5_" width="48" height="48" x="376" y="182"/></defs><clipPath id="SVGID_6_"><use xlink:href="#SVGID_5_" style="overflow:visible"/></clipPath><g class="st4"><g><defs><rect id="SVGID_7_" width="48" height="48" x="376" y="182"/></defs><clipPath id="SVGID_8_"><use xlink:href="#SVGID_7_" style="overflow:visible"/></clipPath><g class="st5"><path d="M377.3,222.2c0,0.2,0.1,0.3,0.2,0.4l3.1,1.7l5.2,3c0.2,0.1,0.5,0.1,0.6-0.2l1.8-3 c0.1-0.2,0-0.4-0.2-0.6l-6.1-3.5c-0.1-0.1-0.2-0.2-0.2-0.4v-27.5c0-0.2,0.1-0.3,0.2-0.4l6.1-3.5c0.2-0.1,0.3-0.4,0.2-0.6 l-1.8-3c-0.1-0.2-0.4-0.3-0.6-0.2c0,0,0,0,0,0l-5.1,3l-3.2,1.8c-0.1,0.1-0.2,0.2-0.2,0.4V222.2z" class="st6"/><path d="M381.7,192.1l0.2-0.2l6.1-3.5c0.2-0.1,0.3-0.3,0.2-0.5c0,0,0,0,0-0.1l-1.8-3c-0.1-0.2-0.3-0.3-0.5-0.2 c0,0-0.1,0-0.1,0l-5.1,3l-3.2,1.8c0,0-0.1,0-0.2,0.2l2.4,1.4L381.7,192.1z" class="st7"/><path d="M388,223.6l-6.1-3.5c-0.1-0.1-0.1-0.1-0.2-0.2l-4.3,2.7h0.1l3.1,1.7l5.3,3c0.2,0.1,0.4,0.1,0.6-0.1 c0,0,0,0,0-0.1l1.8-3C388.3,223.9,388.2,223.7,388,223.6C388,223.6,388,223.6,388,223.6z" class="st7"/><path d="M422.7,222.2c0,0.2-0.1,0.3-0.2,0.4l-3.1,1.7l-5.2,3c-0.2,0.1-0.5,0.1-0.6-0.2l-1.8-3 c-0.1-0.2,0-0.4,0.2-0.6l6.1-3.5c0.1-0.1,0.2-0.2,0.2-0.4v-27.5c0-0.2-0.1-0.3-0.2-0.4l-6.1-3.5c-0.2-0.1-0.3-0.4-0.2-0.6 l1.8-3c0.1-0.2,0.4-0.3,0.6-0.2c0,0,0,0,0,0l5.1,2.9l3.2,1.8c0.1,0.1,0.2,0.2,0.2,0.4V222.2z" class="st6"/><path d="M418.3,192.1l-0.2-0.2l-6.1-3.5c-0.2-0.1-0.3-0.3-0.2-0.5c0,0,0,0,0-0.1l1.8-3c0.1-0.2,0.3-0.3,0.5-0.2 c0,0,0.1,0,0.1,0l5.1,2.9l3.2,1.8c0,0,0,0,0.2,0.2l-2.4,1.4L418.3,192.1z" class="st7"/><path d="M412,223.6l6.1-3.5c0.1-0.1,0.1-0.1,0.2-0.2l4.3,2.7l0,0l-3.1,1.7l-5.3,3c-0.2,0.1-0.4,0.1-0.6-0.1 c0,0,0,0,0-0.1l-1.8-3C411.8,223.9,411.8,223.7,412,223.6z" class="st7"/><path d="M414.2,197.8v16.4l-14.2,8.2V206L414.2,197.8z" class="st8"/><path d="M414.2,197.8l-14.2,8.2l-14.2-8.2l14.2-8.2L414.2,197.8z" class="st9"/><path d="M400,206.1v16.4l-14.2-8.2v-16.4L400,206.1z" class="st10"/><path d="M385.8,214.2L400,206v16.4L385.8,214.2z" class="st9"/><path d="M414.2,214.2L400,206v16.4L414.2,214.2z" class="st10"/></g></g></g></g></g></g><text class="st11 st12" transform="matrix(1 0 0 1 433.62 212)">asclab</text><text class="st13 st14 st15" transform="matrix(1 0 0 1 489.9533 212)">Resource Group</text><path d="M310,48.9c0-7.7,6.2-13.9,13.9-13.9h901.3c7.7,0,13.9,6.2,13.9,13.9v48.3c0,7.7-6.2,13.9-13.9,13.9H323.9 c-7.7,0-13.9-6.2-13.9-13.9V48.9z" class="st16"/><path d="M310,141.1c0-6.7,5.4-12.1,12.1-12.1h904.8c6.7,0,12.1,5.4,12.1,12.1v531.8c0,6.7-5.4,12.1-12.1,12.1H322.1 c-6.7,0-12.1-5.4-12.1-12.1V141.1z" class="st17"/><text class="st11 st12" transform="matrix(1 0 0 1 363.396 160)">Azure Free Trial</text><text class="st13 st14 st15" transform="matrix(1 0 0 1 494.283 160)">Azure Subscription</text><path d="M377,253.6c0-8.1,6.5-14.6,14.6-14.6h270.8c8.1,0,14.6,6.5,14.6,14.6v385.8c0,8.1-6.5,14.6-14.6,14.6H391.6 c-8.1,0-14.6-6.5-14.6-14.6V253.6z" class="st18"/><path d="M399,374.1c0-3.4,2.7-6.1,6.1-6.1h246.8c3.4,0,6.1,2.7,6.1,6.1v253.8c0,3.4-2.7,6.1-6.1,6.1H405.1 c-3.4,0-6.1-2.7-6.1-6.1V374.1z" class="st19"/><text class="st11 st20" transform="matrix(1 0 0 1 400.213 361)">Default</text><text class="st11 st20" transform="matrix(1 0 0 1 455.5463 361)">Subnet</text><g><defs><rect id="SVGID_9_" width="48" height="48" x="427" y="389"/></defs><clipPath id="SVGID_10_"><use xlink:href="#SVGID_9_" style="overflow:visible"/></clipPath><g class="st21"><g><defs><rect id="SVGID_11_" width="48" height="48" x="427" y="389"/></defs><clipPath id="SVGID_12_"><use xlink:href="#SVGID_11_" style="overflow:visible"/></clipPath><g class="st22"><g><defs><rect id="SVGID_13_" width="48" height="48" x="427" y="389"/></defs><clipPath id="SVGID_14_"><use xlink:href="#SVGID_13_" style="overflow:visible"/></clipPath><g class="st23"><path d="M432.7,390.3h5.3v1.5h-5.3V390.3z" class="st24"/><path d="M471.3,391.9h0.9v0.8h1.5v-2.3h-2.3V391.9z" class="st24"/><path d="M430.8,434H430v-0.9h-1.7v2.5h2.4V434z" class="st24"/><path d="M472.2,433.3v0.8h-0.9v1.6h2.3v-2.4H472.2z" class="st24"/><path d="M430,392.6v-0.8h0.7v-1.5h-2.4v2.3H430z" class="st24"/><path d="M458.7,398.5c0.4,0,0.8,0.3,0.8,0.8v14.1c0,0.4-0.3,0.8-0.8,0.8h-21.9c-0.4,0-0.8-0.3-0.8-0.8v-14.1 c0-0.4,0.3-0.8,0.8-0.8H458.7z" class="st24"/><path d="M451.6,404v4.6l-3.9,2.3v-4.6L451.6,404z" class="st10"/><path d="M451.6,404l-3.9,2.3l-3.9-2.3l3.9-2.3L451.6,404z" class="st25"/><path d="M447.7,406.3v4.6l-3.9-2.3V404L447.7,406.3z" class="st9"/><linearGradient id="SVGID_15_" x1="454.48" x2="454.48" y1="299.133" y2="314.787" gradientTransform="matrix(1 0 0 -1 0 722)" gradientUnits="userSpaceOnUse"><stop offset="0" style="stop-color:#0078d4"/><stop offset=".82" style="stop-color:#5ea0ef"/><stop offset="1" style="stop-color:#5ea0ef"/></linearGradient><path d="M465.4,407.2c0.4,0,0.8,0.3,0.8,0.8v14.1c0,0.4-0.3,0.8-0.8,0.8h-21.9c-0.4,0-0.8-0.3-0.8-0.8V408 c0-0.4,0.3-0.8,0.8-0.8H465.4z" class="st26"/><path d="M458.4,412.8v4.6l-3.9,2.3v-4.6L458.4,412.8z" class="st10"/><path d="M458.4,412.8l-3.9,2.3l-3.9-2.3l3.9-2.3L458.4,412.8z" class="st25"/><path d="M454.5,415.1v4.6l-3.9-2.3v-4.6L454.5,415.1z" class="st9"/><path d="M450.6,417.3l3.9-2.3v4.6L450.6,417.3z" class="st25"/><path d="M458.4,417.3l-3.9-2.3v4.6L458.4,417.3z" class="st9"/><linearGradient id="SVGID_16_" x1="454.493" x2="454.493" y1="293.08" y2="299.133" gradientTransform="matrix(1 0 0 -1 0 722)" gradientUnits="userSpaceOnUse"><stop offset="0" style="stop-color:#ccc"/><stop offset=".15" style="stop-color:#ccc"/><stop offset="1" style="stop-color:#707070"/></linearGradient><path d="M459.2,427.6c-2.3-0.4-2.4-2.1-2.4-4.7h-4.6c0,2.7,0,4.4-2.4,4.7c-0.6,0.1-1.1,0.7-1.1,1.3h11.7 C460.3,428.3,459.8,427.7,459.2,427.6z" class="st27"/><path d="M440.5,390.3h5.3v1.5h-5.3V390.3z" class="st24"/><path d="M448.4,390.3h5.3v1.5h-5.3V390.3z" class="st24"/><path d="M456.2,390.3h5.3v1.5h-5.3V390.3z" class="st24"/><path d="M464.1,390.3h5.3v1.5h-5.3V390.3z" class="st24"/><path d="M432.7,434h5.3v1.5h-5.3V434z" class="st24"/><path d="M440.5,434h5.3v1.5h-5.3V434z" class="st24"/><path d="M448.4,434h5.3v1.5h-5.3V434z" class="st24"/><path d="M456.3,434h5.3v1.5h-5.3V434z" class="st24"/><path d="M464.1,434h5.3v1.5h-5.3V434z" class="st24"/><path d="M472.1,394.5h1.5v5.3h-1.5V394.5z" class="st24"/><path d="M472.1,402.3h1.5v5.3h-1.5V402.3z" class="st24"/><path d="M472.1,410.2h1.5v5.3h-1.5V410.2z" class="st24"/><path d="M472.1,418h1.5v5.3h-1.5V418z" class="st24"/><path d="M472.1,425.9h1.5v5.3h-1.5V425.9z" class="st24"/><path d="M428.3,394.4h1.5v5.3h-1.5V394.4z" class="st24"/><path d="M428.3,402.3h1.5v5.3h-1.5V402.3z" class="st24"/><path d="M428.3,410.1h1.5v5.3h-1.5V410.1z" class="st24"/><path d="M428.3,418h1.5v5.3h-1.5V418z" class="st24"/><path d="M428.3,425.8h1.5v5.3h-1.5V425.8z" class="st24"/></g></g></g></g></g></g><g><defs><rect id="SVGID_17_" width="48" height="48" x="473" y="537"/></defs><clipPath id="SVGID_18_"><use xlink:href="#SVGID_17_" style="overflow:visible"/></clipPath><g class="st28"><g><defs><rect id="SVGID_19_" width="48" height="48" x="473" y="537"/></defs><clipPath id="SVGID_20_"><use xlink:href="#SVGID_19_" style="overflow:visible"/></clipPath><g class="st29"><g><defs><rect id="SVGID_21_" width="48" height="48" x="473" y="537"/></defs><clipPath id="SVGID_22_"><use xlink:href="#SVGID_21_" style="overflow:visible"/></clipPath><g class="st30"><linearGradient id="SVGID_23_" x1="496.68" x2="496.68" y1="152.44" y2="184.44" gradientTransform="matrix(1 0 0 -1 0 722)" gradientUnits="userSpaceOnUse"><stop offset="0" style="stop-color:#0078d4"/><stop offset=".82" style="stop-color:#5ea0ef"/><stop offset="1" style="stop-color:#5ea0ef"/></linearGradient><path d="M519.1,537.6c0.9,0,1.6,0.7,1.6,1.6V568c0,0.9-0.7,1.6-1.6,1.6h-44.8c-0.9,0-1.6-0.7-1.6-1.6v-28.8 c0-0.9,0.7-1.6,1.6-1.6H519.1z" class="st31"/><path d="M504.7,548.9v9.3l-8,4.7v-9.3L504.7,548.9z" class="st10"/><path d="M504.7,548.9l-8,4.7l-8-4.7l8-4.7L504.7,548.9z" class="st25"/><path d="M496.7,553.6v9.3l-8-4.7v-9.3L496.7,553.6z" class="st9"/><path d="M488.7,558.2l8-4.6v9.3L488.7,558.2z" class="st25"/><path d="M504.7,558.2l-8-4.6v9.3L504.7,558.2z" class="st9"/><linearGradient id="SVGID_24_" x1="496.68" x2="496.68" y1="140.093" y2="152.44" gradientTransform="matrix(1 0 0 -1 0 722)" gradientUnits="userSpaceOnUse"><stop offset="0" style="stop-color:#ccc"/><stop offset=".15" style="stop-color:#ccc"/><stop offset="1" style="stop-color:#707070"/></linearGradient><path d="M506.3,579.2c-4.7-0.7-4.9-4.2-4.9-9.7H492c0,5.5-0.2,8.9-4.9,9.7c-1.4,0.2-2.4,1.3-2.4,2.7h24 C508.7,580.5,507.7,579.4,506.3,579.2z" class="st32"/></g></g></g></g></g></g><g><defs><rect id="SVGID_25_" width="48" height="48" x="473" y="462"/></defs><clipPath id="SVGID_26_"><use xlink:href="#SVGID_25_" style="overflow:visible"/></clipPath><g class="st33"><g><defs><rect id="SVGID_27_" width="48" height="48" x="473" y="462"/></defs><clipPath id="SVGID_28_"><use xlink:href="#SVGID_27_" style="overflow:visible"/></clipPath><g class="st34"><g><defs><rect id="SVGID_29_" width="48" height="48" x="473" y="462"/></defs><clipPath id="SVGID_30_"><use xlink:href="#SVGID_29_" style="overflow:visible"/></clipPath><g class="st35"><linearGradient id="SVGID_31_" x1="496.68" x2="496.68" y1="227.44" y2="259.44" gradientTransform="matrix(1 0 0 -1 0 722)" gradientUnits="userSpaceOnUse"><stop offset="0" style="stop-color:#0078d4"/><stop offset=".82" style="stop-color:#5ea0ef"/><stop offset="1" style="stop-color:#5ea0ef"/></linearGradient><path d="M519.1,462.6c0.9,0,1.6,0.7,1.6,1.6V493c0,0.9-0.7,1.6-1.6,1.6h-44.8c-0.9,0-1.6-0.7-1.6-1.6v-28.8 c0-0.9,0.7-1.6,1.6-1.6H519.1z" class="st36"/><path d="M504.7,473.9v9.3l-8,4.7v-9.3L504.7,473.9z" class="st10"/><path d="M504.7,473.9l-8,4.7l-8-4.7l8-4.7L504.7,473.9z" class="st25"/><path d="M496.7,478.6v9.3l-8-4.7v-9.3L496.7,478.6z" class="st9"/><path d="M488.7,483.2l8-4.6v9.3L488.7,483.2z" class="st25"/><path d="M504.7,483.2l-8-4.6v9.3L504.7,483.2z" class="st9"/><linearGradient id="SVGID_32_" x1="496.68" x2="496.68" y1="215.093" y2="227.44" gradientTransform="matrix(1 0 0 -1 0 722)" gradientUnits="userSpaceOnUse"><stop offset="0" style="stop-color:#ccc"/><stop offset=".15" style="stop-color:#ccc"/><stop offset="1" style="stop-color:#707070"/></linearGradient><path d="M506.3,504.2c-4.7-0.7-4.9-4.2-4.9-9.7H492c0,5.5-0.2,8.9-4.9,9.7c-1.4,0.2-2.4,1.3-2.4,2.7h24 C508.7,505.5,507.7,504.4,506.3,504.2z" class="st37"/></g></g></g></g></g></g><g><defs><rect id="SVGID_33_" width="48" height="48" x="431" y="595"/></defs><clipPath id="SVGID_34_"><use xlink:href="#SVGID_33_" style="overflow:visible"/></clipPath><g class="st38"><g><defs><rect id="SVGID_35_" width="48" height="48" x="431" y="595"/></defs><clipPath id="SVGID_36_"><use xlink:href="#SVGID_35_" style="overflow:visible"/></clipPath><g class="st39"><g><defs><rect id="SVGID_37_" width="48" height="48" x="431" y="595"/></defs><clipPath id="SVGID_38_"><use xlink:href="#SVGID_37_" style="overflow:visible"/></clipPath><g class="st40"><path d="M474.6,617.4c0,12.9-15.6,23.3-19,25.4c-0.4,0.2-0.9,0.2-1.3,0c-3.4-2.1-19-12.5-19-25.4v-15.5 c0-0.7,0.5-1.2,1.2-1.2c12.1-0.3,9.3-5.7,18.4-5.7s6.3,5.3,18.4,5.7c0.7,0,1.2,0.6,1.2,1.2V617.4z" class="st24"/><path d="M473,617.5c0,11.8-14.3,21.3-17.4,23.3c-0.4,0.2-0.8,0.2-1.2,0c-3.1-1.9-17.4-11.5-17.4-23.3v-14.2 c0-0.6,0.5-1.1,1.1-1.1c11.1-0.3,8.6-5.2,16.9-5.2s5.8,4.9,16.9,5.2c0.6,0,1.1,0.5,1.1,1.1V617.5z" class="st41"/><linearGradient id="SVGID_39_" x1="455.05" x2="455.05" y1="125" y2="81" gradientTransform="matrix(1 0 0 -1 0 722)" gradientUnits="userSpaceOnUse"><stop offset="0" style="stop-color:#5ea0ef"/><stop offset=".18" style="stop-color:#559cec"/><stop offset=".47" style="stop-color:#3c91e5"/><stop offset=".84" style="stop-color:#1380da"/><stop offset="1" style="stop-color:#0078d4"/></linearGradient><path d="M455,619v-22c8.3,0,5.8,4.9,16.9,5.2c0.6,0,1.1,0.5,1.1,1.1v14.2c0,0.5,0,1,0,1.4H455z M455,619h-17.9 c1.1,11.1,14.3,20,17.3,21.8c0.1,0.1,0.3,0.1,0.5,0.2h0.1V619z" class="st42"/><path d="M438.1,602.2c11.1-0.3,8.6-5.2,16.9-5.2v22h-17.9c0-0.5,0-1,0-1.4v-14.2 C437.1,602.7,437.5,602.2,438.1,602.2z" class="st10"/><path d="M472.9,619H455v22l0,0c0.2,0,0.3-0.1,0.5-0.2C458.6,639,471.9,630.1,472.9,619z" class="st10"/></g></g></g></g></g></g><path d="M695,227.3c0-6.8,5.5-12.3,12.3-12.3h246.3c6.8,0,12.3,5.5,12.3,12.3v156.3c0,6.8-5.5,12.3-12.3,12.3H707.3 c-6.8,0-12.3-5.5-12.3-12.3V227.3z" class="st43"/><path d="M696,435c0-8.9,7.2-16,16-16H950c8.9,0,16,7.2,16,16V638c0,8.9-7.2,16-16,16H712c-8.9,0-16-7.2-16-16V435z" class="st43"/><g><defs><rect id="SVGID_40_" width="48" height="48" x="313" y="136"/></defs><clipPath id="SVGID_41_"><use xlink:href="#SVGID_40_" style="overflow:visible"/></clipPath><g class="st44"><g><defs><rect id="SVGID_42_" width="48" height="48" x="313" y="136"/></defs><clipPath id="SVGID_43_"><use xlink:href="#SVGID_42_" style="overflow:visible"/></clipPath><g class="st45"><g><defs><rect id="SVGID_44_" width="48" height="48" x="313" y="136"/></defs><clipPath id="SVGID_45_"><use xlink:href="#SVGID_44_" style="overflow:visible"/></clipPath><g class="st46"><radialGradient id="SVGID_46_" cx="-228.369" cy="812.471" r="11.18" gradientTransform="matrix(2.5067 0 0 -2.5067 905.3077 2195.7766)" gradientUnits="userSpaceOnUse"><stop offset="0" style="stop-color:#ffd70f"/><stop offset=".27" style="stop-color:#ffd70f"/><stop offset=".49" style="stop-color:#ffcb12"/><stop offset=".88" style="stop-color:#feac19"/><stop offset="1" style="stop-color:#fea11b"/></radialGradient><path d="M349.2,155.2c2.2-2.2,2.2-5.6,0-7.8c0,0,0,0,0,0l0,0l-9.5-9.5c-2.1-2.1-5.6-2.2-7.8,0c0,0,0,0,0,0l0,0 l-9.5,9.5c-2.1,2.2-2.1,5.6,0,7.8l8,8c0.3,0.3,0.4,0.7,0.5,1.1V179c0,0.5,0.2,1,0.5,1.3l3.6,3.6c0.5,0.5,1.2,0.5,1.7,0.1 c0,0,0,0,0.1-0.1l3.5-3.5l0,0l2.1-2.1c0.3-0.3,0.3-0.7,0-1c0,0,0,0,0,0l-1.5-1.5c-0.3-0.3-0.3-0.8,0-1.1c0,0,0,0,0,0 l1.5-1.5c0.3-0.3,0.3-0.7,0-1c0,0,0,0,0,0l-1.5-1.6c-0.3-0.3-0.3-0.8,0-1.1c0,0,0,0,0,0l1.6-1.6c0.3-0.3,0.3-0.7,0-1 c0,0,0,0,0,0l-2.1-2.1v-0.7L349.2,155.2z M335.8,140.1c1.7,0,3.1,1.4,3.1,3.2c0,1.7-1.4,3.1-3.2,3.1c-1.7,0-3.1-1.4-3.1-3.1 C332.6,141.6,334,140.1,335.8,140.1C335.8,140.1,335.8,140.1,335.8,140.1L335.8,140.1z" class="st47"/><path d="M333.3,179.2L333.3,179.2c0.3,0.2,0.7,0.1,0.9-0.2c0.1-0.1,0.1-0.2,0.1-0.3v-11.9 c0-0.2-0.1-0.4-0.3-0.6l0,0c-0.3-0.2-0.7-0.1-0.9,0.2c-0.1,0.1-0.1,0.3-0.1,0.4v11.9C333,178.9,333.1,179.1,333.3,179.2z" class="st48"/><path d="M342.9,150.5c0.5,0,0.9,0.4,0.9,0.9v0.1c0,0.5-0.4,0.9-0.9,0.9H329c-0.5,0-0.9-0.4-0.9-0.9v-0.1 c0-0.5,0.4-0.9,0.9-0.9H342.9z" class="st48"/><path d="M342.9,153.5c0.5,0,0.9,0.4,0.9,0.9v0.1c0,0.5-0.4,0.9-0.9,0.9H329c-0.5,0-0.9-0.4-0.9-0.9v-0.1 c0-0.5,0.4-0.9,0.9-0.9H342.9z" class="st48"/></g></g></g></g></g></g><g><defs><rect id="SVGID_47_" width="48" height="48" x="385" y="268"/></defs><clipPath id="SVGID_48_"><use xlink:href="#SVGID_47_" style="overflow:visible"/></clipPath><g class="st49"><g><defs><rect id="SVGID_49_" width="48" height="48" x="385" y="268"/></defs><clipPath id="SVGID_50_"><use xlink:href="#SVGID_49_" style="overflow:visible"/></clipPath><g class="st50"><g><defs><rect id="SVGID_51_" width="48" height="48" x="385" y="268"/></defs><clipPath id="SVGID_52_"><use xlink:href="#SVGID_51_" style="overflow:visible"/></clipPath><g class="st51"><linearGradient id="SVGID_53_" x1="416.795" x2="421.175" y1="432.2" y2="427.831" gradientTransform="matrix(1 0 0 -1 0 722)" gradientUnits="userSpaceOnUse"><stop offset="0" style="stop-color:#86d633"/><stop offset="1" style="stop-color:#5e9624"/></linearGradient><path d="M422.1,292c0,1.7-1.4,3.1-3.1,3.1c-1.7,0-3.1-1.4-3.1-3.1c0-1.7,1.4-3.1,3.1-3.1 C420.7,288.9,422.1,290.3,422.1,292z" class="st52"/><linearGradient id="SVGID_54_" x1="404.769" x2="409.116" y1="434.363" y2="429.99" gradientTransform="matrix(1 0 0 -1 0 722)" gradientUnits="userSpaceOnUse"><stop offset="0" style="stop-color:#86d633"/><stop offset="1" style="stop-color:#5e9624"/></linearGradient><path d="M412.2,292c0,1.7-1.4,3.1-3.1,3.1c-1.7,0-3.1-1.4-3.1-3.1s1.4-3.1,3.1-3.1 C410.8,288.9,412.2,290.3,412.2,292z" class="st53"/><linearGradient id="SVGID_55_" x1="394.903" x2="399.25" y1="434.363" y2="429.99" gradientTransform="matrix(1 0 0 -1 0 722)" gradientUnits="userSpaceOnUse"><stop offset="0" style="stop-color:#86d633"/><stop offset="1" style="stop-color:#5e9624"/></linearGradient><path d="M402.3,292c0,1.7-1.4,3.1-3.1,3.1c-1.7,0-3.1-1.4-3.1-3.1s1.4-3.1,3.1-3.1 C400.9,288.9,402.3,290.3,402.3,292z" class="st54"/><path d="M401.5,304.4l-1.8,1.8c-0.3,0.3-0.8,0.3-1.1,0l-13.1-13.1c-0.6-0.6-0.6-1.6,0-2.3l1.8-1.8l0,0 l14.2,14.2C401.8,303.5,401.8,304.1,401.5,304.4z" class="st10"/><path d="M399.4,277.9l1.8,1.8c0.3,0.3,0.3,0.8,0,1.1l-14,14l0,0l-1.8-1.8c-0.6-0.6-0.6-1.6,0-2.3l12.9-12.9 C398.6,277.6,399.1,277.6,399.4,277.9z" class="st55"/><path d="M430.8,289l1.8,1.8c0.6,0.6,0.6,1.6,0,2.3l-13.1,13.1c-0.3,0.3-0.8,0.3-1.1,0l-1.8-1.8 c-0.3-0.3-0.3-0.8,0-1.1L430.8,289L430.8,289z" class="st10"/><path d="M432.5,293l-1.8,1.8l0,0l-14-14c-0.3-0.3-0.3-0.8,0-1.1l1.8-1.8c0.3-0.3,0.8-0.3,1.1,0l12.9,12.9 C433.2,291.4,433.2,292.4,432.5,293L432.5,293z" class="st55"/></g></g></g></g></g></g><text class="st11 st12" transform="matrix(1 0 0 1 444.654 297)">asclab</text><text class="st11 st12" transform="matrix(1 0 0 1 495.8207 297)">-</text><text class="st11 st12" transform="matrix(1 0 0 1 502.1478 297)">vnet</text><text class="st13 st14 st15" transform="matrix(1 0 0 1 544.154 297)">Virtual Network</text><text class="st24 st11 st20" transform="matrix(1 0 0 1 704.832 237)">Container Services</text><path d="M989,477.9c0-7.1,5.8-12.9,12.9-12.9h195.2c7.1,0,12.9,5.8,12.9,12.9v163.2c0,7.1-5.8,12.9-12.9,12.9h-195.2 c-7.1,0-12.9-5.8-12.9-12.9V477.9z" class="st43"/><g><defs><rect id="SVGID_56_" width="48" height="48" x="1005" y="513"/></defs><clipPath id="SVGID_57_"><use xlink:href="#SVGID_56_" style="overflow:visible"/></clipPath><g class="st56"><g><defs><rect id="SVGID_58_" width="48" height="48" x="1005" y="513"/></defs><clipPath id="SVGID_59_"><use xlink:href="#SVGID_58_" style="overflow:visible"/></clipPath><g class="st57"><g><defs><rect id="SVGID_60_" width="48" height="48" x="1005" y="513"/></defs><clipPath id="SVGID_61_"><use xlink:href="#SVGID_60_" style="overflow:visible"/></clipPath><g class="st58"><linearGradient id="SVGID_62_" x1="1011.91" x2="1046.09" y1="181.906" y2="181.906" gradientTransform="matrix(1 0 0 -1 0 722)" gradientUnits="userSpaceOnUse"><stop offset="0" style="stop-color:#005ba1"/><stop offset=".07" style="stop-color:#0060a9"/><stop offset=".36" style="stop-color:#0071c8"/><stop offset=".52" style="stop-color:#0078d4"/><stop offset=".64" style="stop-color:#0074cd"/><stop offset=".82" style="stop-color:#006abb"/><stop offset="1" style="stop-color:#005ba1"/></linearGradient><path d="M1029,526.7c-9.4,0-17.1-2.7-17.1-6.2v33c0,3.4,7.5,6.1,16.9,6.2h0.2c9.4,0,17.1-2.7,17.1-6.2v-33 C1046.1,524,1038.4,526.7,1029,526.7z" class="st59"/><path d="M1046.1,520.5c0,3.4-7.7,6.2-17.1,6.2c-9.4,0-17.1-2.7-17.1-6.2c0-3.5,7.7-6.2,17.1-6.2 C1038.4,514.3,1046.1,517,1046.1,520.5" class="st60"/><path d="M1042.1,520c0,2.2-5.9,3.9-13.1,3.9s-13.1-1.8-13.1-3.9c0-2.2,5.9-3.9,13.1-3.9 S1042.1,517.9,1042.1,520" class="st10"/><path d="M1029,521c-3.5-0.1-7,0.4-10.4,1.5c3.3,1.1,6.8,1.6,10.4,1.4c3.5,0.1,7-0.4,10.4-1.5 C1036,521.4,1032.5,520.9,1029,521z" class="st61"/><radialGradient id="SVGID_63_" cx="-190.015" cy="823.305" r="7.07" gradientTransform="matrix(2.6667 0 0 -2.6667 1536.6677 2736.6697)" gradientUnits="userSpaceOnUse"><stop offset="0" style="stop-color:#f2f2f2"/><stop offset=".58" style="stop-color:#eee"/><stop offset="1" style="stop-color:#e6e6e6"/></radialGradient><path d="M1039.4,543.4v-9.1h-2.4v11h6.6v-1.9H1039.4z M1020.4,538.9c-0.5-0.2-1-0.5-1.4-0.8 c-0.2-0.2-0.3-0.5-0.3-0.9c0-0.3,0.1-0.6,0.4-0.8c0.3-0.2,0.7-0.3,1.1-0.3c1,0,1.9,0.2,2.7,0.8v-2.3 c-0.9-0.3-1.8-0.5-2.7-0.4c-1-0.1-2.1,0.3-2.9,0.9c-0.7,0.6-1.1,1.4-1.1,2.4c0,1.4,0.9,2.4,2.7,3.2c0.6,0.2,1.1,0.6,1.6,1 c0.3,0.2,0.4,0.5,0.4,0.9c0,0.3-0.2,0.6-0.4,0.8c-0.4,0.2-0.8,0.3-1.2,0.3c-1.1,0-2.1-0.4-2.9-1.1v2.5 c0.9,0.5,1.9,0.7,2.9,0.6c1.1,0.1,2.2-0.2,3.1-0.9c0.7-0.6,1-1.5,0.9-2.4c0-0.7-0.2-1.3-0.7-1.9 C1022,539.8,1021.2,539.3,1020.4,538.9z M1034.3,543.2c0.6-1,0.9-2.2,0.9-3.4c-0.1-1-0.4-2-0.9-2.8c-0.4-0.8-1.1-1.5-1.9-2 c-0.8-0.5-1.7-0.7-2.7-0.7c-1,0-2,0.2-2.9,0.7c-0.8,0.5-1.5,1.1-2,2c-0.5,0.9-0.7,2-0.7,3c0,0.9,0.2,1.8,0.6,2.7 c0.4,0.8,1,1.5,1.8,2c0.8,0.5,1.7,0.8,2.7,0.8l2.3,2.7h3.2l-3.3-2.9C1032.8,544.9,1033.7,544.2,1034.3,543.2z M1031.7,542.5 c-0.5,0.6-1.2,1-2,0.9c-0.8,0-1.6-0.3-2-1c-0.6-0.8-0.8-1.7-0.8-2.7c-0.1-1,0.2-1.9,0.8-2.7c0.5-0.6,1.3-1,2.1-1 c0.8,0,1.6,0.3,2,1c0.5,0.8,0.8,1.7,0.7,2.7C1032.5,540.8,1032.2,541.7,1031.7,542.5z" class="st62"/></g></g></g></g></g></g><g><defs><rect id="SVGID_64_" width="48" height="48" x="1011" y="582"/></defs><clipPath id="SVGID_65_"><use xlink:href="#SVGID_64_" style="overflow:visible"/></clipPath><g class="st63"><g><defs><rect id="SVGID_66_" width="48" height="48" x="1011" y="582"/></defs><clipPath id="SVGID_67_"><use xlink:href="#SVGID_66_" style="overflow:visible"/></clipPath><g class="st64"><g><defs><rect id="SVGID_68_" width="48" height="48" x="1011" y="582"/></defs><clipPath id="SVGID_69_"><use xlink:href="#SVGID_68_" style="overflow:visible"/></clipPath><g class="st65"><linearGradient id="SVGID_70_" x1="1012.33" x2="1046.15" y1="113.213" y2="113.213" gradientTransform="matrix(1 0 0 -1 0 722)" gradientUnits="userSpaceOnUse"><stop offset="0" style="stop-color:#005ba1"/><stop offset=".07" style="stop-color:#0060a9"/><stop offset=".36" style="stop-color:#0071c8"/><stop offset=".52" style="stop-color:#0078d4"/><stop offset=".64" style="stop-color:#0074cd"/><stop offset=".82" style="stop-color:#006abb"/><stop offset="1" style="stop-color:#005ba1"/></linearGradient><path d="M1029.2,595.6c-9.3,0-16.9-2.7-16.9-6.1V622c0,3.4,7.4,6.1,16.7,6.1h0.2c9.3,0,16.9-2.7,16.9-6.1 v-32.6C1046.2,592.8,1038.6,595.6,1029.2,595.6z" class="st66"/><path d="M1046.2,589.4c0,3.4-7.6,6.1-16.9,6.1c-9.3,0-16.9-2.7-16.9-6.1s7.6-6.1,16.9-6.1 C1038.6,583.3,1046.2,586,1046.2,589.4" class="st60"/><path d="M1042.2,588.9c0,2.2-5.8,3.9-13,3.9c-7.1,0-12.9-1.7-12.9-3.9c0-2.2,5.8-3.9,12.9-3.9 C1036.4,585,1042.2,586.8,1042.2,588.9" class="st10"/><path d="M1029.2,589.8c-3.5-0.1-6.9,0.4-10.2,1.5c3.3,1.1,6.8,1.6,10.3,1.5c3.5,0.1,7-0.4,10.3-1.5 C1036.2,590.3,1032.7,589.8,1029.2,589.8z" class="st61"/><path d="M1039.6,611.6v-9h-2.5v11h6.6v-2H1039.6z M1020.6,607.1c-0.5-0.2-1-0.5-1.4-0.8 c-0.2-0.2-0.2-0.6-0.2-0.9c0-0.3,0.2-0.6,0.4-0.8c0.3-0.2,0.7-0.3,1.1-0.3c1,0,1.9,0.2,2.7,0.8v-2.3 c-0.9-0.3-1.8-0.5-2.7-0.4c-1.1-0.1-2.3,0.2-3.2,0.9c-0.7,0.6-1.1,1.5-1.1,2.4c0,1.4,0.9,2.4,2.7,3.2c0.6,0.3,1.1,0.6,1.6,1 c0.3,0.2,0.4,0.5,0.4,0.9c0,0.3-0.2,0.6-0.4,0.8c-0.4,0.2-0.8,0.3-1.2,0.3c-1.1,0-2.2-0.4-3-1.2v2.5 c0.9,0.4,1.9,0.6,2.9,0.6c1.1,0.1,2.2-0.2,3.1-0.9c0.8-0.6,1.2-1.5,1.1-2.5c0-0.7-0.2-1.4-0.7-1.9 C1022.2,608,1021.4,607.5,1020.6,607.1z M1034.4,611.3c0.6-1,0.9-2.2,0.9-3.4c0-1-0.2-2-0.7-2.9c-0.4-0.8-1.1-1.5-1.9-2 c-0.8-0.5-1.7-0.7-2.7-0.7c-1,0-2,0.2-2.9,0.7c-0.8,0.5-1.5,1.2-1.9,2.1c-0.5,0.9-0.7,2-0.7,3.1c0,1,0.2,1.9,0.6,2.8 c0.4,0.8,1,1.5,1.8,2c0.8,0.5,1.7,0.8,2.7,0.8l2.3,2.7h3.2l-3.2-3C1033,613.1,1033.9,612.3,1034.4,611.3z M1032,610.6 c-0.9,1.1-2.6,1.3-3.8,0.3c-0.1-0.1-0.2-0.2-0.3-0.3c-0.6-0.8-0.8-1.7-0.8-2.7c-0.1-1,0.2-1.9,0.8-2.7c0.5-0.7,1.3-1,2.1-1 c0.8,0,1.5,0.3,2,1c0.5,0.8,0.8,1.7,0.7,2.7C1032.8,609,1032.6,609.9,1032,610.6L1032,610.6z" class="st67"/><path d="M1050.5,628.6l0.6-2.1l1.3-0.7l2.2,1l1.4-1.4v-0.2l-1-1.9l0.6-1.3l2.2-0.8h0.2v-1.9h-0.3l-2.1-0.6 l-0.7-1.2l0.9-2.2l-1.4-1.4h-0.2l-1.9,1l-1.3-0.8l-0.8-2.4h-2v0.3l-0.6,2.1l-1.4,0.6l-2.3-1.1l-1.4,1.4l0.1,0.3l1,2 l-0.5,1.4l-2.5,0.8v2h0.3l2.1,0.6l0.6,1.4l-1,2.3l1.4,1.4l0.2-0.1l2-1l1.4,0.5l0.9,2.4h2L1050.5,628.6z M1047.3,622.3 c-1.1-1.1-1.1-2.9,0-4c1.1-1.1,2.9-1.1,4,0c1.1,1.1,1.1,2.9,0,4C1050.2,623.4,1048.4,623.4,1047.3,622.3z" class="st6"/></g></g></g></g></g></g><path d="M987,229.2c0-8.4,6.8-15.2,15.2-15.2h192.6c8.4,0,15.2,6.8,15.2,15.2v199.6c0,8.4-6.8,15.2-15.2,15.2h-192.6 c-8.4,0-15.2-6.8-15.2-15.2V229.2z" class="st43"/><g><defs><rect id="SVGID_71_" width="48" height="48" x="1002" y="316"/></defs><clipPath id="SVGID_72_"><use xlink:href="#SVGID_71_" style="overflow:visible"/></clipPath><g class="st68"><g><defs><rect id="SVGID_73_" width="48" height="48" x="1002" y="316"/></defs><clipPath id="SVGID_74_"><use xlink:href="#SVGID_73_" style="overflow:visible"/></clipPath><g class="st69"><g><defs><rect id="SVGID_75_" width="48" height="48" x="1002" y="316"/></defs><clipPath id="SVGID_76_"><use xlink:href="#SVGID_75_" style="overflow:visible"/></clipPath><g class="st70"><linearGradient id="SVGID_77_" x1="1015.95" x2="1015.95" y1="359.467" y2="384.427" gradientTransform="matrix(1 0 0 -1 0 722)" gradientUnits="userSpaceOnUse"><stop offset="0" style="stop-color:#1988d9"/><stop offset=".9" style="stop-color:#54aef0"/><stop offset="1" style="stop-color:#54aef0"/></linearGradient><path d="M1016.9,351h11.5v11.5h-11.5V351z M1005.1,362.5h9.9V351h-11.5v9.9 C1003.5,361.8,1004.2,362.5,1005.1,362.5z M1003.5,349.2h11.5v-11.6h-11.5V349.2z" class="st71"/><linearGradient id="SVGID_78_" x1="1032.67" x2="1032.67" y1="372.8" y2="404.533" gradientTransform="matrix(1 0 0 -1 0 722)" gradientUnits="userSpaceOnUse"><stop offset="0" style="stop-color:#198ab3"/><stop offset=".01" style="stop-color:#198bb4"/><stop offset=".44" style="stop-color:#27b2d7"/><stop offset=".79" style="stop-color:#2fcbed"/><stop offset="1" style="stop-color:#32d4f5"/></linearGradient><path d="M1032.7,317.5c8.7-0.1,15.8,6.9,15.9,15.5c0,0.2,0,0.3,0,0.5c0.1,8.7-6.9,15.8-15.5,15.9 c-0.1,0-0.2,0-0.3,0h-15.9v-16c-0.1-8.7,6.9-15.8,15.5-15.9C1032.4,317.5,1032.6,317.5,1032.7,317.5z" class="st72"/><path d="M1022.2,331.1h3.6v10.9h-3.6V331.1z" class="st1"/><path d="M1029.5,334.7h3.6v7.3h-3.6V334.7z" class="st1"/><path d="M1036.8,327.4h3.6v14.5h-3.6V327.4z" class="st1"/></g></g></g></g></g></g><g><defs><rect id="SVGID_79_" width="48" height="48" x="1002" y="249"/></defs><clipPath id="SVGID_80_"><use xlink:href="#SVGID_79_" style="overflow:visible"/></clipPath><g class="st73"><g><defs><rect id="SVGID_81_" width="48" height="48" x="1002" y="249"/></defs><clipPath id="SVGID_82_"><use xlink:href="#SVGID_81_" style="overflow:visible"/></clipPath><g class="st74"><g><defs><rect id="SVGID_83_" width="48" height="48" x="1002" y="249"/></defs><clipPath id="SVGID_84_"><use xlink:href="#SVGID_83_" style="overflow:visible"/></clipPath><g class="st75"><linearGradient id="SVGID_85_" x1="1026" x2="1026" y1="430.787" y2="457.56" gradientTransform="matrix(1 0 0 -1 0 722)" gradientUnits="userSpaceOnUse"><stop offset="0" style="stop-color:#b3b3b3"/><stop offset=".26" style="stop-color:#c1c1c1"/><stop offset="1" style="stop-color:#e6e6e6"/></linearGradient><path d="M1003.3,264.4h45.3l0,0v25.3c0,0.8-0.7,1.5-1.5,1.5h-42.3c-0.8,0-1.5-0.7-1.5-1.5V264.4L1003.3,264.4z" class="st76"/><path d="M1004.8,254.8h42.3c0.8,0,1.5,0.7,1.5,1.5v8.1l0,0h-45.3l0,0v-8.2 C1003.3,255.5,1004,254.8,1004.8,254.8z" class="st77"/><path d="M1009.5,267.4h33c0.4,0,0.7,0.3,0.7,0.7v3.7c0,0.4-0.3,0.7-0.7,0.7h-33c-0.4,0-0.7-0.3-0.7-0.7v-3.7 C1008.8,267.7,1009.1,267.4,1009.5,267.4z" class="st1"/><path d="M1009.5,274.8h33c0.4,0,0.7,0.3,0.7,0.7v3.8c0,0.4-0.3,0.7-0.7,0.7h-33c-0.4,0-0.7-0.3-0.7-0.7v-3.6 c-0.1-0.4,0.2-0.8,0.6-0.8C1009.4,274.8,1009.5,274.8,1009.5,274.8z" class="st77"/><path d="M1009.5,282.3h33c0.4,0,0.7,0.3,0.7,0.7v3.8c0,0.4-0.3,0.7-0.7,0.7h-33c-0.4,0-0.7-0.3-0.7-0.7v-3.8 C1008.8,282.7,1009.1,282.3,1009.5,282.3z" class="st78"/></g></g></g></g></g></g><text class="st11 st20" transform="matrix(1 0 0 1 528.706 483)">asclab</text><text class="st11 st20" transform="matrix(1 0 0 1 572.3727 483)">-</text><text class="st11 st20" transform="matrix(1 0 0 1 578.706 483)">win</text><text class="st11 st12" transform="matrix(1 0 0 1 484.7541 412)">asclab</text><text class="st11 st12" transform="matrix(1 0 0 1 535.9208 412)">-</text><text class="st11 st12" transform="matrix(1 0 0 1 543.4208 412)">as</text><text class="st11 st20" transform="matrix(1 0 0 1 528.5815 558)">asclab</text><text class="st11 st20" transform="matrix(1 0 0 1 572.2482 558)">-</text><text class="st11 st20" transform="matrix(1 0 0 1 578.5815 558)">linux</text><text class="st11 st20" transform="matrix(1 0 0 1 482.1511 619)">asclab</text><text class="st11 st20" transform="matrix(1 0 0 1 525.8177 619)">-</text><text class="st11 st20" transform="matrix(1 0 0 1 532.1511 619)">nsg</text><text class="st11 st20" transform="matrix(1 0 0 1 1066.801 536)">asclab</text><text class="st11 st20" transform="matrix(1 0 0 1 1110.468 536)">-</text><text class="st11 st20" transform="matrix(1 0 0 1 1116.801 536)">db</text><text class="st11 st20" transform="matrix(1 0 0 1 1066.801 604)">asclab</text><text class="st11 st20" transform="matrix(1 0 0 1 1110.468 604)">-</text><text class="st11 st20" transform="matrix(1 0 0 1 1116.801 604)">sql</text><text class="st11 st20" transform="matrix(1 0 0 1 1060.0181 338)">asclab</text><text class="st11 st20" transform="matrix(1 0 0 1 1103.6851 338)">-</text><text class="st11 st20" transform="matrix(1 0 0 1 1110.0181 338)">la</text><text class="st11 st20" transform="matrix(1 0 0 1 1060.0181 269)">asclabsa</text><g><defs><rect id="SVGID_86_" width="48" height="48" x="1003" y="379"/></defs><clipPath id="SVGID_87_"><use xlink:href="#SVGID_86_" style="overflow:visible"/></clipPath><g class="st79"><g><defs><rect id="SVGID_88_" width="48" height="48" x="1003" y="379"/></defs><clipPath id="SVGID_89_"><use xlink:href="#SVGID_88_" style="overflow:visible"/></clipPath><g class="st80"><g><defs><rect id="SVGID_90_" width="48" height="48" x="1003" y="379"/></defs><clipPath id="SVGID_91_"><use xlink:href="#SVGID_90_" style="overflow:visible"/></clipPath><g class="st81"><radialGradient id="SVGID_92_" cx="-190.375" cy="824.875" r="8.501" gradientTransform="matrix(2.6667 0 0 -2.6667 1534.6677 2602.6697)" gradientUnits="userSpaceOnUse"><stop offset="0" style="stop-color:#5ea0ef"/><stop offset=".18" style="stop-color:#5ea0ef"/><stop offset=".56" style="stop-color:#5c9fee"/><stop offset=".69" style="stop-color:#559ced"/><stop offset=".78" style="stop-color:#4a97e9"/><stop offset=".86" style="stop-color:#3990e4"/><stop offset=".93" style="stop-color:#2387de"/><stop offset=".99" style="stop-color:#087bd6"/><stop offset="1" style="stop-color:#0078d4"/></radialGradient><path d="M1027,380.3c-12.5,0-22.7,10.1-22.7,22.7s10.1,22.7,22.7,22.7s22.7-10.1,22.7-22.7 C1049.7,390.5,1039.5,380.3,1027,380.3z M1027,422.6c-10.8,0-19.6-8.8-19.6-19.6s8.8-19.6,19.6-19.6 c10.8,0,19.6,8.8,19.6,19.6S1037.8,422.6,1027,422.6z" class="st82"/><path d="M1046.6,403c0,10.8-8.8,19.6-19.6,19.6c-10.8,0-19.6-8.8-19.6-19.6s8.8-19.6,19.6-19.6 C1037.8,383.4,1046.6,392.2,1046.6,403z" class="st1"/><radialGradient id="SVGID_93_" cx="-152.79" cy="647.52" r="9.88" gradientTransform="matrix(2.5067 0 0 -2.5067 1407.0677 2023.203)" gradientUnits="userSpaceOnUse"><stop offset="0" style="stop-color:#ffd70f"/><stop offset=".27" style="stop-color:#ffd70f"/><stop offset=".49" style="stop-color:#ffcb12"/><stop offset=".88" style="stop-color:#feac19"/><stop offset="1" style="stop-color:#fea11b"/></radialGradient><path d="M1038.8,398.5c1.9-1.9,1.9-5,0-6.9l0,0l-8.4-8.4c-1.9-1.9-5-1.9-6.9,0l0,0l-8.4,8.4 c-1.9,1.9-1.9,5,0,6.9l7,7.1c0.2,0.3,0.4,0.6,0.4,1v13c0,0.4,0.2,0.9,0.5,1.2l3.2,3.2c0.4,0.4,1.1,0.4,1.5,0c0,0,0,0,0,0 l3.1-3.1l0,0l1.8-1.8c0.2-0.3,0.2-0.7,0-0.9l-1.3-1.3c-0.3-0.3-0.3-0.7,0-1l1.3-1.3c0.2-0.3,0.2-0.7,0-0.9l-1.3-1.3 c-0.3-0.3-0.3-0.7,0-1l1.3-1.3c0.2-0.3,0.2-0.7,0-0.9l-1.8-1.8v-0.7L1038.8,398.5z M1027,385.3c1.5,0,2.8,1.2,2.8,2.8 c0,1.5-1.2,2.8-2.8,2.8s-2.8-1.2-2.8-2.8C1024.2,386.5,1025.5,385.3,1027,385.3z" class="st83"/><path d="M1024.8,419.8L1024.8,419.8c0.3,0.2,0.6,0.2,0.9-0.1c0.1-0.1,0.1-0.2,0.1-0.4v-10.7 c0-0.2-0.1-0.4-0.3-0.5l0,0c-0.3-0.2-0.6-0.1-0.8,0.2c-0.1,0.1-0.1,0.2-0.1,0.4v10.7 C1024.6,419.5,1024.7,419.7,1024.8,419.8z" class="st48"/><path d="M1033.3,394.4c0.4,0,0.8,0.3,0.8,0.7v0.1c0,0.4-0.3,0.7-0.8,0.7H1021c-0.4,0-0.8-0.3-0.8-0.7v-0.1 c0-0.4,0.3-0.7,0.8-0.7H1033.3z" class="st48"/><path d="M1033.3,397.1c0.4,0,0.8,0.3,0.8,0.7v0.1c0,0.4-0.3,0.7-0.8,0.7H1021c-0.4,0-0.8-0.3-0.8-0.7v-0.1 c0-0.4,0.3-0.7,0.8-0.7H1033.3z" class="st48"/></g></g></g></g></g></g><text class="st11 st20" transform="matrix(1 0 0 1 1060.02 398)">asclab</text><text class="st11 st20" transform="matrix(1 0 0 1 1103.6866 398)">-</text><text class="st11 st20" transform="matrix(1 0 0 1 1110.02 398)">kv</text><g><defs><rect id="SVGID_94_" width="48" height="48" x="569" y="51"/></defs><clipPath id="SVGID_95_"><use xlink:href="#SVGID_94_" style="overflow:visible"/></clipPath><g class="st84"><g><defs><rect id="SVGID_96_" width="48" height="48" x="569" y="51"/></defs><clipPath id="SVGID_97_"><use xlink:href="#SVGID_96_" style="overflow:visible"/></clipPath><g class="st85"><g><defs><rect id="SVGID_98_" width="48" height="48" x="569" y="51"/></defs><clipPath id="SVGID_99_"><use xlink:href="#SVGID_98_" style="overflow:visible"/></clipPath><g class="st86"><path d="M571.7,78.2l21.1,13.7l21.5-13.8l2.7,3.1l-24.2,15.6L569,81.3L571.7,78.2z" class="st10"/><path d="M573.3,76.4l19.5-23.3l19.9,23.3L592.8,89L573.3,76.4z" class="st1"/><path d="M592.8,53.2V89l-19.5-12.6L592.8,53.2z" class="st10"/><linearGradient id="SVGID_100_" x1="604.346" x2="592" y1="636.287" y2="659.674" gradientTransform="matrix(1 0 0 -1 0 722)" gradientUnits="userSpaceOnUse"><stop offset="0" style="stop-color:#1988d9"/><stop offset=".9" style="stop-color:#54aef0"/><stop offset="1" style="stop-color:#54aef0"/></linearGradient><path d="M592.8,53.2V89l19.9-12.6L592.8,53.2z" class="st87"/><path d="M592.8,71.7l19.9,4.7L592.8,89V71.7z" class="st88"/><path d="M592.8,89l-19.5-12.6l19.5-4.7V89z" class="st9"/><linearGradient id="SVGID_101_" x1="599.031" x2="607.564" y1="643.082" y2="628.362" gradientTransform="matrix(1 0 0 -1 0 722)" gradientUnits="userSpaceOnUse"><stop offset="0" style="stop-color:#54aef0"/><stop offset=".1" style="stop-color:#54aef0"/><stop offset=".29" style="stop-color:#4fabee"/><stop offset=".51" style="stop-color:#41a2e9"/><stop offset=".74" style="stop-color:#2a93e0"/><stop offset=".88" style="stop-color:#1988d9"/><stop offset="1" style="stop-color:#1988d9"/></linearGradient><path d="M592.8,96.8L617,81.3l-2.7-3.1l-21.5,13.8V96.8z" class="st89"/></g></g></g></g></g></g><text class="st11 st90" transform="matrix(1 0 0 1 633.415 73)">[tenant</text><text class="st11 st90" transform="matrix(1 0 0 1 708.395 73)">-</text><text class="st11 st90" transform="matrix(1 0 0 1 718.0616 73)">prefix].</text><text class="st11 st90" transform="matrix(1 0 0 1 790.0851 73)">onmicrosoft.com</text><text class="st13 st14 st15" transform="matrix(1 0 0 1 701.225 99)">Azure</text><text class="st13 st14 st15" transform="matrix(1 0 0 1 737.392 99)">Active Directory</text><text class="st13 st14 st15" transform="matrix(1 0 0 1 832.058 99)">Tenant</text><g><defs><rect id="SVGID_102_" width="72" height="72" x="117" y="35"/></defs><clipPath id="SVGID_103_"><use xlink:href="#SVGID_102_" style="overflow:visible"/></clipPath><g class="st91"><g><defs><rect id="SVGID_104_" width="72" height="72" x="117" y="35"/></defs><clipPath id="SVGID_105_"><use xlink:href="#SVGID_104_" style="overflow:visible"/></clipPath><g class="st92"><g><defs><rect id="SVGID_106_" width="72" height="72" x="117" y="35"/></defs><clipPath id="SVGID_107_"><use xlink:href="#SVGID_106_" style="overflow:visible"/></clipPath><g class="st93"><path d="M181.3,68.8c0,18.3-22.5,33-27.4,36c-0.6,0.3-1.3,0.3-1.9,0c-4.9-3-27.4-17.7-27.4-36v-22 c0-1,0.8-1.7,1.7-1.8c17.5-0.5,13.5-8,26.6-8s9.1,7.5,26.6,8c1,0,1.7,0.8,1.7,1.7V68.8z" class="st94"/><linearGradient id="SVGID_108_" x1="153" x2="153" y1="619.82" y2="682.18" gradientTransform="matrix(1 0 0 -1 0 722)" gradientUnits="userSpaceOnUse"><stop offset="0" style="stop-color:#5e9624"/><stop offset=".321" style="stop-color:#639d26"/><stop offset=".794" style="stop-color:#6fb12a"/><stop offset=".999" style="stop-color:#76bc2d"/><stop offset="1" style="stop-color:#76bc2d"/></linearGradient><path d="M179,68.9c0,16.8-20.6,30.3-25.1,33c-0.5,0.3-1.2,0.3-1.7,0c-4.5-2.7-25.2-16.2-25.2-33V48.8 c0-0.9,0.7-1.6,1.6-1.6c16.1-0.4,12.4-7.3,24.4-7.3s8.3,6.9,24.4,7.3c0.9,0,1.6,0.7,1.6,1.6V68.9z" class="st95"/><path d="M164.4,65.6h-1.6V60c0-2.7-1-5.3-2.8-7.2c-3.5-3.8-9.5-4.1-13.3-0.6c-0.2,0.2-0.4,0.4-0.6,0.6 c-1.8,2-2.8,4.6-2.8,7.2v5.7h-1.7c-0.7,0-1.3,0.6-1.3,1.3v14.7c0,0.7,0.6,1.3,1.3,1.3h22.8c0.7,0,1.3-0.6,1.3-1.3V66.9 C165.7,66.2,165.1,65.6,164.4,65.6z M158.2,65.6h-10.4v-5.8c0-1.5,0.6-2.9,1.6-4c1.8-2,4.8-2.1,6.8-0.4 c0.1,0.1,0.3,0.2,0.4,0.4c0.2,0.2,0.4,0.5,0.6,0.8l0,0c0.6,0.9,1,2,1,3.2L158.2,65.6z" class="st1"/><path d="M141.6,65.6h22.8c0.3,0,0.6,0.1,0.8,0.3l-24.5,16.6c-0.3-0.2-0.5-0.6-0.5-1V66.9 C140.3,66.2,140.9,65.6,141.6,65.6z" class="st96"/><path d="M164.4,65.6h-22.8c-0.3,0-0.6,0.1-0.8,0.3l24.5,16.6c0.3-0.2,0.5-0.6,0.5-1V66.9 C165.7,66.2,165.1,65.6,164.4,65.6z" class="st97"/></g></g></g></g></g></g><text class="st11 st90" transform="matrix(1 0 0 1 61.8807 141)">Labs</text><text class="st11 st90" transform="matrix(1 0 0 1 120.5916 141)">Architecture</text><text class="st11 st20" transform="matrix(1 0 0 1 15.079 392)">Administrator: ascadmin</text><text class="st11 st20" transform="matrix(1 0 0 1 15.079 411)">Network Address Space: 192.168.0.0/16</text><text class="st11 st20" transform="matrix(1 0 0 1 15.079 430)">Subnet</text><text class="st11 st20" transform="matrix(1 0 0 1 69.079 430)">Address Space: 192.168.0.0/24</text><g><defs><rect id="SVGID_109_" width="48" height="48" x="740" y="261"/></defs><clipPath id="SVGID_110_"><use xlink:href="#SVGID_109_" style="overflow:visible"/></clipPath><g class="st98"><g><defs><rect id="SVGID_111_" width="48" height="48" x="740" y="261"/></defs><clipPath id="SVGID_112_"><use xlink:href="#SVGID_111_" style="overflow:visible"/></clipPath><g class="st99"><g><defs><rect id="SVGID_113_" width="48" height="48" x="740" y="261"/></defs><clipPath id="SVGID_114_"><use xlink:href="#SVGID_113_" style="overflow:visible"/></clipPath><g class="st100"><linearGradient id="SVGID_115_" x1="763.032" x2="763.032" y1="466.309" y2="416.363" gradientTransform="matrix(1 0 0 -1 0 722)" gradientUnits="userSpaceOnUse"><stop offset="0" style="stop-color:#5ea0ef"/><stop offset="1" style="stop-color:#0078d4"/></linearGradient><path d="M759.8,282.8l6.9-4.2l19.3,7.3c-0.4-1.9-1.4-3.6-2.8-4.9l0-0.1c-1.6-1.6-3.7-2.6-5.9-3 c-0.3-7.2-6.4-12.8-13.6-12.5c-5.7-0.1-10.9,3.4-12.9,8.8c-6.1,0.7-10.7,5.8-10.8,11.9c0.3,6.9,6.1,12.3,13,12.1h6.8V282.8z" class="st101"/><path d="M766.9,280.1l0,11.4L788,296V288L766.9,280.1z" class="st102"/><path d="M766.9,280.1l-5.7,3.5v10.6l5.7-2.7" class="st103"/><path d="M776.5,291.7l1.9,0.5V286l-1.9-0.7V291.7z" class="st7"/><path d="M774.6,284.7l-1.9-0.7v6.6l1.9,0.5V284.7z" class="st7"/><path d="M780.3,292.7l1.9,0.5l0.1-5.9l-1.9-0.6V292.7z" class="st7"/><path d="M768.8,289.7l1.9,0.5v-6.7l-1.9-0.6V289.7z" class="st7"/><path d="M786.1,288.6l-1.9-0.7v5.8l1.9,0.5V288.6z" class="st7"/><path d="M763.1,291.3l-1,0.6v-7.5l1-0.5V291.3z M765,282.7l-1,0.6v7.3l1-0.5V282.7z" class="st104"/><linearGradient id="SVGID_116_" x1="774.56" x2="774.56" y1="430.496" y2="424.043" gradientTransform="matrix(1 0 0 -1 0 722)" gradientUnits="userSpaceOnUse"><stop offset="0" style="stop-color:#333132"/><stop offset="1" style="stop-color:#5b5a5c"/></linearGradient><path d="M788,296l-5.8,2l-21.1-3.8l5.7-2.7L788,296z" class="st105"/><path d="M788,304.1l-21.2,4l0.1-14.9l21.1,3.9V304.1z" class="st102"/><path d="M768.8,305.7v-9.5l1.9,0.2v8.9L768.8,305.7z" class="st7"/><path d="M774.6,304.7l-1.9,0.3v-8.4l1.9,0.3V304.7L774.6,304.7z" class="st7"/><path d="M776.5,304.4v-7.3l1.9,0.2v6.7L776.5,304.4z" class="st7"/><path d="M782.2,303.4l-1.9,0.3v-6.1l1.9,0.3V303.4z" class="st7"/><path d="M786.1,302.8l-2,0.3v-5l1.8,0.2L786.1,302.8z" class="st7"/><path d="M761.1,304.7V296l5.8-2.7v14.9L761.1,304.7z" class="st103"/><path d="M763,304.7l-0.9-0.4v-7.4l0.9-0.4V304.7z M765,295.5l-1,0.5v9.3l1,0.5L765,295.5L765,295.5z" class="st104"/></g></g></g></g></g></g><text class="st11 st20" transform="matrix(1 0 0 1 735.588 330)">asclabcr</text><text class="st13 st14 st15" transform="matrix(1 0 0 1 711.0171 350)">Container Registry</text><g><defs><rect id="SVGID_117_" width="48" height="48" x="868" y="265"/></defs><clipPath id="SVGID_118_"><use xlink:href="#SVGID_117_" style="overflow:visible"/></clipPath><g class="st106"><g><defs><rect id="SVGID_119_" width="48" height="48" x="868" y="265"/></defs><clipPath id="SVGID_120_"><use xlink:href="#SVGID_119_" style="overflow:visible"/></clipPath><g class="st107"><g><defs><rect id="SVGID_121_" width="48" height="48" x="868" y="265"/></defs><clipPath id="SVGID_122_"><use xlink:href="#SVGID_121_" style="overflow:visible"/></clipPath><g class="st108"><linearGradient id="SVGID_123_" x1="875.84" x2="891.12" y1="447.027" y2="447.027" gradientTransform="matrix(1 0 0 -1 0 722)" gradientUnits="userSpaceOnUse"><stop offset="0" style="stop-color:#b77af4"/><stop offset="1" style="stop-color:#773adc"/></linearGradient><path d="M883.5,268.3l-7.6,1.4v10.4l7.6,1.6l7.7-3.1v-7.8L883.5,268.3z" class="st109"/><path d="M875.8,269.7v10.4l7.7,1.6v-13.3L875.8,269.7z M879.1,279.3l-2.2-0.4v-8l2.2-0.3V279.3z M882.5,279.9 l-2.5-0.4v-9.1l2.5-0.4V279.9z" class="st110"/><linearGradient id="SVGID_124_" x1="892.347" x2="907.6" y1="446.893" y2="446.893" gradientTransform="matrix(1 0 0 -1 0 722)" gradientUnits="userSpaceOnUse"><stop offset="0" style="stop-color:#b77af4"/><stop offset="1" style="stop-color:#773adc"/></linearGradient><path d="M900,268.4l-7.6,1.4v10.4l7.6,1.6l7.6-3.1V271L900,268.4z" class="st111"/><path d="M892.3,269.8v10.4l7.7,1.6v-13.3L892.3,269.8z M895.6,279.4l-2.2-0.4v-8l2.2-0.3V279.4z M898.9,280 l-2.5-0.4v-9.1l2.5-0.5V280z" class="st110"/><linearGradient id="SVGID_125_" x1="868.027" x2="883.28" y1="432.68" y2="432.68" gradientTransform="matrix(1 0 0 -1 0 722)" gradientUnits="userSpaceOnUse"><stop offset="0" style="stop-color:#b77af4"/><stop offset="1" style="stop-color:#773adc"/></linearGradient><path d="M875.7,282.6L868,284v10.4l7.6,1.6l7.7-3.1v-7.8L875.7,282.6z" class="st112"/><path d="M868,284v10.3l7.7,1.6v-13.3L868,284z M871.2,293.6l-2.2-0.5v-8l2.2-0.4V293.6z M874.6,294.3 l-2.5-0.4v-9.3l2.5-0.4V294.3z" class="st110"/><linearGradient id="SVGID_126_" x1="884.48" x2="899.733" y1="432.774" y2="432.774" gradientTransform="matrix(1 0 0 -1 0 722)" gradientUnits="userSpaceOnUse"><stop offset="0" style="stop-color:#b77af4"/><stop offset="1" style="stop-color:#773adc"/></linearGradient><path d="M892.1,282.5l-7.6,1.4v10.4l7.6,1.7l7.6-3.1v-7.8L892.1,282.5z" class="st113"/><path d="M884.5,283.9v10.4l7.7,1.6v-13.3L884.5,283.9z M887.7,293.5l-2.2-0.5v-8l2.2-0.4V293.5z M891.1,294.1 l-2.5-0.4v-9.1l2.5-0.4V294.1z" class="st110"/><linearGradient id="SVGID_127_" x1="900.933" x2="916.213" y1="432.653" y2="432.653" gradientTransform="matrix(1 0 0 -1 0 722)" gradientUnits="userSpaceOnUse"><stop offset="0" style="stop-color:#b77af4"/><stop offset="1" style="stop-color:#773adc"/></linearGradient><path d="M908.6,282.6l-7.6,1.4v10.4l7.6,1.6l7.7-3.1v-7.8L908.6,282.6z" class="st114"/><path d="M900.9,284v10.3l7.7,1.6v-13.3L900.9,284z M904.2,293.7l-2.2-0.5v-8l2.2-0.4V293.7z M907.5,294.3 l-2.5-0.4v-9.1l2.5-0.4V294.3z" class="st110"/><linearGradient id="SVGID_128_" x1="875.653" x2="890.933" y1="418.173" y2="418.173" gradientTransform="matrix(1 0 0 -1 0 722)" gradientUnits="userSpaceOnUse"><stop offset="0" style="stop-color:#b77af4"/><stop offset="1" style="stop-color:#773adc"/></linearGradient><path d="M883.3,297.1l-7.6,1.4v10.4l7.6,1.7l7.7-3.1v-7.7L883.3,297.1z" class="st115"/><path d="M875.7,298.5v10.4l7.7,1.7V297L875.7,298.5z M878.9,308.1l-2.2-0.5v-8l2.2-0.4V308.1z M882.3,308.7 l-2.5-0.4v-9.2l2.5-0.4V308.7z" class="st110"/><linearGradient id="SVGID_129_" x1="892.133" x2="907.413" y1="418.067" y2="418.067" gradientTransform="matrix(1 0 0 -1 0 722)" gradientUnits="userSpaceOnUse"><stop offset="0" style="stop-color:#b77af4"/><stop offset="1" style="stop-color:#773adc"/></linearGradient><path d="M899.8,297.2l-7.6,1.4V309l7.6,1.6l7.7-3.1v-7.8L899.8,297.2z" class="st116"/><path d="M892.1,298.6V309l7.7,1.6v-13.3L892.1,298.6z M895.4,308.3l-2.2-0.5v-8l2.2-0.4V308.3z M898.7,308.8 l-2.5-0.4v-9.1l2.5-0.4V308.8z" class="st110"/></g></g></g></g></g></g><text class="st11 st20" transform="matrix(1 0 0 1 855.0759 333)">asclab</text><text class="st11 st20" transform="matrix(1 0 0 1 898.7427 333)">-</text><text class="st11 st20" transform="matrix(1 0 0 1 905.0759 333)">aks</text><text class="st13 st14 st15" transform="matrix(1 0 0 1 830.8416 351)">Managed Kubernetes</text><text class="st13 st14 st15" transform="matrix(1 0 0 1 483.8719 430)">Availability Set</text><text class="st13 st14 st15" transform="matrix(1 0 0 1 528.758 498)">Virtual</text><text class="st13 st14 st15" transform="matrix(1 0 0 1 570.092 498)">Machin</text><text class="st13 st14 st15" transform="matrix(1 0 0 1 611.758 498)">e</text><text class="st13 st14 st15" transform="matrix(1 0 0 1 528.7729 572)">Virtual Machine</text><path d="M449,440v118.4" class="st117"/><path d="M465.9,483l-16.9,0.3" class="st117"/><path d="M464.9,557l-16.9,0.3" class="st117"/><text class="st13 st14 st15" transform="matrix(1 0 0 1 481.313 633)">Network Security Group</text><g><defs><rect id="SVGID_130_" width="48" height="48" x="739" y="454"/></defs><clipPath id="SVGID_131_"><use xlink:href="#SVGID_130_" style="overflow:visible"/></clipPath><g class="st118"><g><defs><rect id="SVGID_132_" width="48" height="48" x="739" y="454"/></defs><clipPath id="SVGID_133_"><use xlink:href="#SVGID_132_" style="overflow:visible"/></clipPath><g class="st119"><g><defs><rect id="SVGID_134_" width="48" height="48" x="739" y="454"/></defs><clipPath id="SVGID_135_"><use xlink:href="#SVGID_134_" style="overflow:visible"/></clipPath><g class="st120"><radialGradient id="SVGID_136_" cx="13907.246" cy="-3065.36" r="56.697" gradientTransform="matrix(0.4 0 0 -0.4 -4799.9497 -748.147)" gradientUnits="userSpaceOnUse"><stop offset="0" style="stop-color:#5ea0ef"/><stop offset=".18" style="stop-color:#5ea0ef"/><stop offset="1" style="stop-color:#0078d4"/></radialGradient><path d="M776.9,495.9c-9.9,7.7-24.1,5.9-31.8-4c-7.7-9.9-5.9-24.1,4-31.8l0.2-0.2c10-7.5,24.2-5.4,31.7,4.6 C788.4,474.4,786.6,488.3,776.9,495.9" class="st121"/><path d="M756.8,473.3c6.4-6.1,14.9-9.5,23.8-9.5c-1.2-1.4-2.5-2.7-4-3.8c-4.3,0.3-8.5,1.3-12.5,2.9 c-4.1,1.8-7.8,4.3-10.9,7.5C754.7,470.9,756,471.9,756.8,473.3z" class="st122"/><path d="M745.6,482.4c-0.9,2.3-1.7,4.6-2.2,7c0.5,0.9,1,1.7,1.7,2.5c0.5,0.6,0.9,1.2,1.5,1.7 c0.6-3.2,1.6-6.3,2.9-9.3C748,484.1,746.7,483.4,745.6,482.4z" class="st122"/><path d="M748.2,470.3c-0.9-2.5-1.6-5.2-1.8-7.8c-1.1,1.2-2.1,2.5-2.9,3.9c0.3,2.2,0.8,4.3,1.5,6.3 C745.8,471.6,746.9,470.8,748.2,470.3z" class="st123"/><linearGradient id="SVGID_137_" x1="750.737" x2="750.657" y1="237.387" y2="247.92" gradientTransform="matrix(1 0 0 -1 0 722)" gradientUnits="userSpaceOnUse"><stop offset="0" style="stop-color:#ccc"/><stop offset="1" style="stop-color:#fcfcfc"/></linearGradient><path d="M758,477.1c0,4-3.3,7.3-7.3,7.3s-7.3-3.3-7.3-7.3c0-4,3.3-7.3,7.3-7.3S758,473.1,758,477.1z" class="st124"/><path d="M761.3,490.5c0-1.3,0.5-2.5,1.4-3.4c-2.5-1.3-4.7-3-6.7-5c-1.1,1.1-2.4,1.9-4,2.2 c1.2,1.2,2.5,2.4,3.9,3.4c1.7,1.3,3.5,2.4,5.5,3.3C761.3,490.9,761.3,490.7,761.3,490.5z" class="st123"/><path d="M778.1,491c-2.5,0-4.9-0.3-7.4-0.9c0,0.1,0,0.2,0,0.3c0,1.2-0.5,2.4-1.4,3.3c3,0.6,6.1,0.8,9.1,0.6 c1.2-1.1,2.2-2.3,3.2-3.6C780.5,491,779.3,491,778.1,491z" class="st123"/><linearGradient id="SVGID_138_" x1="766.014" x2="766.014" y1="226.8" y2="236.267" gradientTransform="matrix(1 0 0 -1 0 722)" gradientUnits="userSpaceOnUse"><stop offset="0" style="stop-color:#ccc"/><stop offset="1" style="stop-color:#fcfcfc"/></linearGradient><path d="M770.8,490.5c0,2.6-2.1,4.7-4.7,4.7c-2.6,0-4.7-2.1-4.7-4.7c0-2.6,2.1-4.7,4.7-4.7 C768.6,485.7,770.8,487.8,770.8,490.5z" class="st125"/><path d="M771.9,477.8c0.2-1,0.8-2,1.6-2.7c-4.4-3.2-8.4-6.9-11.9-11c-2-2.4-3.8-5-5.3-7.8 c-1,0.3-2,0.7-2.9,1.1c1.6,3,3.5,5.9,5.7,8.5C762.8,470.4,767.1,474.4,771.9,477.8z" class="st126"/><linearGradient id="SVGID_139_" x1="776.813" x2="776.813" y1="238.267" y2="248.32" gradientTransform="matrix(1 0 0 -1 0 722)" gradientUnits="userSpaceOnUse"><stop offset="0" style="stop-color:#ccc"/><stop offset="1" style="stop-color:#fcfcfc"/></linearGradient><path d="M781.9,478.7c0,2.8-2.3,5-5,5c-2.8,0-5-2.3-5-5s2.3-5,5-5C779.6,473.7,781.9,475.9,781.9,478.7z" class="st127"/><path d="M785.3,482.1l-0.9-0.5l0,0l-0.8-0.4h-0.2l-0.7-0.6h-0.2l-0.8-0.5c-0.3,1-0.9,1.8-1.7,2.5 c0.3,0.2,0.7,0.4,1,0.6l0.2,0.1l0.9,0.5l0,0l2.3,1.2l0,0C784.7,484,785,483.1,785.3,482.1L785.3,482.1z" class="st123"/><linearGradient id="SVGID_140_" x1="750.737" x2="750.657" y1="237.387" y2="247.92" gradientTransform="matrix(1 0 0 -1 0 722)" gradientUnits="userSpaceOnUse"><stop offset="0" style="stop-color:#ccc"/><stop offset="1" style="stop-color:#fcfcfc"/></linearGradient><path d="M758,477.1c0,4-3.3,7.3-7.3,7.3s-7.3-3.3-7.3-7.3c0-4,3.3-7.3,7.3-7.3S758,473.1,758,477.1z" class="st128"/><linearGradient id="SVGID_141_" x1="766.014" x2="766.014" y1="226.8" y2="236.267" gradientTransform="matrix(1 0 0 -1 0 722)" gradientUnits="userSpaceOnUse"><stop offset="0" style="stop-color:#ccc"/><stop offset="1" style="stop-color:#fcfcfc"/></linearGradient><path d="M770.8,490.5c0,2.6-2.1,4.7-4.7,4.7c-2.6,0-4.7-2.1-4.7-4.7c0-2.6,2.1-4.7,4.7-4.7 C768.6,485.7,770.8,487.8,770.8,490.5z" class="st129"/></g></g></g></g></g></g><text class="st11 st20" transform="matrix(1 0 0 1 723.4561 525)">asclab</text><text class="st11 st20" transform="matrix(1 0 0 1 767.1226 525)">-</text><text class="st11 st20" transform="matrix(1 0 0 1 773.4561 525)">app</text><text class="st13 st14 st15" transform="matrix(1 0 0 1 728.4208 542)">App Service</text><g><defs><rect id="SVGID_142_" width="48" height="48" x="806" y="564"/></defs><clipPath id="SVGID_143_"><use xlink:href="#SVGID_142_" style="overflow:visible"/></clipPath><g class="st130"><g><defs><rect id="SVGID_144_" width="48" height="48" x="806" y="564"/></defs><clipPath id="SVGID_145_"><use xlink:href="#SVGID_144_" style="overflow:visible"/></clipPath><g class="st131"><g><defs><rect id="SVGID_146_" width="48" height="48" x="806" y="564"/></defs><clipPath id="SVGID_147_"><use xlink:href="#SVGID_146_" style="overflow:visible"/></clipPath><g class="st132"><linearGradient id="SVGID_148_" x1="820.866" x2="820.866" y1="111.333" y2="156.667" gradientTransform="matrix(1 0 0 -1 0 722)" gradientUnits="userSpaceOnUse"><stop offset="0" style="stop-color:#949494"/><stop offset=".05" style="stop-color:#949494"/><stop offset=".36" style="stop-color:#979797"/><stop offset=".54" style="stop-color:#9f9f9f"/><stop offset=".69" style="stop-color:#adadad"/><stop offset=".73" style="stop-color:#b3b3b3"/><stop offset="1" style="stop-color:#b3b3b3"/></linearGradient><path d="M834.2,609.1c0,0.8-0.6,1.5-1.5,1.5c0,0,0,0-0.1,0H809c-0.8,0-1.5-0.7-1.5-1.5c0,0,0,0,0,0v-42.3 c0-0.8,0.6-1.5,1.5-1.5c0,0,0,0,0,0h23.6c0.8,0,1.5,0.6,1.5,1.5c0,0,0,0,0,0.1L834.2,609.1z" class="st133"/><path d="M811.3,581.2c0-1.6,1.3-2.9,2.9-2.9c0,0,0.1,0,0.1,0h13.3c1.6,0,2.8,1.3,2.8,2.9l0,0 c0,1.6-1.3,2.9-2.9,2.9c0,0,0,0,0,0h-13.3C812.7,584.1,811.3,582.9,811.3,581.2C811.3,581.2,811.3,581.2,811.3,581.2z" class="st134"/><path d="M811.3,572.6c0-1.6,1.3-2.9,2.9-2.9c0,0,0.1,0,0.1,0h13.3c1.6,0,2.8,1.3,2.8,2.9l0,0 c0,1.6-1.3,2.9-2.9,2.9h-13.3C812.7,575.5,811.4,574.3,811.3,572.6C811.3,572.7,811.3,572.7,811.3,572.6z" class="st134"/><path d="M816.4,572.6c0,1.1-0.9,1.9-1.9,1.9s-1.9-0.9-1.9-1.9s0.9-1.9,1.9-1.9S816.4,571.6,816.4,572.6z" class="st10"/><path d="M816.4,581.2c0,1.1-0.9,1.9-1.9,1.9s-1.9-0.9-1.9-1.9s0.9-1.9,1.9-1.9S816.4,580.2,816.4,581.2z" class="st10"/><linearGradient id="SVGID_149_" x1="834.16" x2="834.16" y1="141.947" y2="105.44" gradientTransform="matrix(1 0 0 -1 0 722)" gradientUnits="userSpaceOnUse"><stop offset="0" style="stop-color:#5ea0ef"/><stop offset=".18" style="stop-color:#5ea0ef"/><stop offset="1" style="stop-color:#0078d4"/></linearGradient><path d="M852.5,602.3c-0.1-4-3.1-7.4-7.1-8c-0.2-5.7-4.9-10.2-10.7-10.1c-4.6-0.1-8.7,2.8-10.2,7.1 c-4.8,0.6-8.5,4.7-8.6,9.6c0.1,5.5,4.8,9.9,10.3,9.8h0.9h16.7h0.5C848.8,610.6,852.4,606.9,852.5,602.3z" class="st135"/></g></g></g></g></g></g><text class="st11 st20" transform="matrix(1 0 0 1 785.859 630)">asclab</text><text class="st11 st20" transform="matrix(1 0 0 1 829.5256 630)">-</text><text class="st11 st20" transform="matrix(1 0 0 1 835.859 630)">splan</text><text class="st13 st14 st15" transform="matrix(1 0 0 1 781.9883 647)">App Service Plan</text><g><defs><rect id="SVGID_150_" width="48" height="48" x="872" y="453"/></defs><clipPath id="SVGID_151_"><use xlink:href="#SVGID_150_" style="overflow:visible"/></clipPath><g class="st136"><g><defs><rect id="SVGID_152_" width="48" height="48" x="872" y="453"/></defs><clipPath id="SVGID_153_"><use xlink:href="#SVGID_152_" style="overflow:visible"/></clipPath><g class="st137"><g><defs><rect id="SVGID_154_" width="48" height="48" x="872" y="453"/></defs><clipPath id="SVGID_155_"><use xlink:href="#SVGID_154_" style="overflow:visible"/></clipPath><g class="st138"><path d="M886.8,487.9l-1.6,1.6c-0.3,0.3-0.7,0.3-1,0l-11.6-11.6c-0.6-0.6-0.6-1.5,0-2l1.6-1.6l0,0l12.6,12.6 C887.1,487.2,887.1,487.7,886.8,487.9L886.8,487.9z" class="st10"/><path d="M885,464.5l1.6,1.6c0.3,0.3,0.3,0.7,0,1l-12.4,12.4l0,0l-1.6-1.6c-0.6-0.6-0.6-1.5,0-2l11.4-11.4 C884.2,464.2,884.7,464.2,885,464.5z" class="st55"/><path d="M917.8,474.4l1.6,1.6c0.6,0.6,0.6,1.5,0,2l-11.6,11.6c-0.3,0.3-0.7,0.3-1,0l-1.6-1.6 c-0.3-0.3-0.3-0.7,0-1L917.8,474.4L917.8,474.4L917.8,474.4z" class="st10"/><path d="M919.4,477.9l-1.6,1.6l0,0L905.5,467c-0.3-0.3-0.3-0.7,0-1l1.6-1.6c0.3-0.3,0.7-0.3,1,0l11.4,11.4 C920,476.5,920,477.4,919.4,477.9L919.4,477.9z" class="st55"/><linearGradient id="SVGID_156_" x1="896.442" x2="896.442" y1="224.048" y2="266.59" gradientTransform="matrix(1 0 0 -1 0 722)" gradientUnits="userSpaceOnUse"><stop offset="0" style="stop-color:#fea11b"/><stop offset=".284" style="stop-color:#fea51a"/><stop offset=".547" style="stop-color:#feb018"/><stop offset=".8" style="stop-color:#ffc314"/><stop offset="1" style="stop-color:#ffd70f"/></linearGradient><path d="M894.6,479.4H885c-0.3,0-0.5-0.2-0.5-0.5c0-0.1,0-0.1,0-0.2L896,456c0.1-0.2,0.3-0.3,0.5-0.3h11.3 c0.3,0,0.5,0.2,0.5,0.5c0,0.1,0,0.2-0.1,0.3l-13.5,17.8h13.1c0.3,0,0.5,0.2,0.5,0.5c0,0.1-0.1,0.2-0.1,0.3l-21.8,22.7 c-0.2,0.1-1.7,1.3-0.9-0.5l0,0L894.6,479.4z" class="st139"/></g></g></g></g></g></g><text class="st11 st20" transform="matrix(1 0 0 1 864.442 524)">asclab</text><text class="st11 st20" transform="matrix(1 0 0 1 908.1086 524)">-</text><text class="st11 st20" transform="matrix(1 0 0 1 914.442 524)">fa</text><text class="st13 st14 st15" transform="matrix(1 0 0 1 855.1858 543)">Functions App</text><path d="M895,552v46.3" class="st117"/><path d="M858,598h39" class="st117"/><path d="M761,552v46.3" class="st117"/><path d="M761,598h39" class="st117"/><text class="st13 st14 st15" transform="matrix(1 0 0 1 1060.02 284)">Storage Account</text><text class="st13 st14 st15" transform="matrix(1 0 0 1 1060.02 354)">Log Analytics Workspace</text><text class="st13 st14 st15" transform="matrix(1 0 0 1 1060.02 415)">Key Vault</text><text class="st13 st14 st15" transform="matrix(1 0 0 1 1066.8033 554)">SQL Database</text><text class="st13 st14 st15" transform="matrix(1 0 0 1 1066.8033 621)">SQL</text><text class="st13 st14 st15" transform="matrix(1 0 0 1 1092.1367 621)">Server</text><text class="st24 st11 st20" transform="matrix(1 0 0 1 385.769 261)">Compute</text><text class="st24 st11 st20" transform="matrix(1 0 0 1 455.143 261)">Services</text><text class="st24 st11 st20" transform="matrix(1 0 0 1 702.939 441)">App</text><text class="st24 st11 st20" transform="matrix(1 0 0 1 736.272 441)">Services</text><text class="st24 st11 st20" transform="matrix(1 0 0 1 996.8536 488)">Database</text><text class="st24 st11 st20" transform="matrix(1 0 0 1 1066.6403 488)">Services</text><text class="st24 st11 st20" transform="matrix(1 0 0 1 997.4932 236)">Security, Storage, Analytics</text></g></g></svg>